<mxfile host="app.diagrams.net" modified="2024-05-02T19:03:28.195Z" agent="Mozilla/5.0 (X11; Linux x86_64) AppleWebKit/537.36 (KHTML, like Gecko) Chrome/115.0.0.0 Safari/537.36" version="24.0.7" etag="X524XBdGR78NoKBo4uRb" type="github">
  <diagram name="Page-1" id="xSG1XHO8h1wz-EjAUy9p">
    <mxGraphModel>
      <root>
        <mxCell id="0" />
        <mxCell id="1" parent="0" />
      </root>
    </mxGraphModel>
  </diagram>
</mxfile>
